<?xml version="1.0" encoding="UTF-8"?>
<svg version="1.1" xmlns="http://www.w3.org/2000/svg" width="524" height="524">
<path d="M0 0 C172.92 0 345.84 0 524 0 C524 172.92 524 345.84 524 524 C351.08 524 178.16 524 0 524 C0 351.08 0 178.16 0 0 Z " fill="#2589C8" transform="translate(0,0)"/>
<path d="M0 0 C6.67611497 3.27949507 9.08597972 7.70566464 11.39620972 14.46969604 C11.68311676 15.33434479 11.9700238 16.19899353 12.265625 17.08984375 C12.576138 18.00621613 12.886651 18.9225885 13.20657349 19.86672974 C14.22821133 22.88795677 15.2391922 25.9126341 16.25 28.9375 C16.9572736 31.03656959 17.66512608 33.13544421 18.37353516 35.23413086 C20.59318159 41.81914442 22.79743166 48.40925833 25 55 C25.72812863 57.17612734 26.4563181 59.35223433 27.18457031 61.52832031 C31.25429385 73.69377453 35.30782463 85.86455555 39.34881592 98.0395813 C40.23044189 100.69375557 41.11487136 103.34699204 42 106 C42.66 106 43.32 106 44 106 C43.47598992 97.24791677 40.15351229 89.23562342 37.2175293 81.05688477 C31.04946173 63.78841156 31.04946173 63.78841156 33.953125 56.66015625 C34.38109375 56.13292969 34.8090625 55.60570312 35.25 55.0625 C35.66765625 54.51722656 36.0853125 53.97195312 36.515625 53.41015625 C40.81485407 49.32588863 45.41947131 49.5801365 51.08203125 49.68359375 C55.02061083 50.11066864 57.13781916 51.28459766 60 54 C63.1642758 58.46921973 64.60260544 63.4012303 66.25 68.5625 C66.85931714 70.43273528 67.47003366 72.30251513 68.08203125 74.171875 C68.39479004 75.12900391 68.70754883 76.08613281 69.02978516 77.07226562 C70.60934154 81.83875786 72.27013648 86.57614014 73.9375 91.3125 C74.24397461 92.18398682 74.55044922 93.05547363 74.86621094 93.95336914 C75.57613589 95.96938445 76.28785081 97.98476932 77 100 C77.66 100 78.32 100 79 100 C78.3806028 91.81019254 75.59465673 84.60339273 72.79492188 76.93164062 C70.45965451 70.26367105 68.09952934 63.49953331 70.98828125 56.66015625 C71.42527344 56.13292969 71.86226563 55.60570312 72.3125 55.0625 C72.74175781 54.51722656 73.17101562 53.97195312 73.61328125 53.41015625 C76.89454162 50.07343796 79.30683674 49.68167501 83.8125 49.625 C89.04846855 49.71974008 92.04425497 50.34093585 96 54 C100.22977299 58.41738389 101.70463804 63.22946962 103.5 68.9375 C103.80115723 69.86812256 104.10231445 70.79874512 104.41259766 71.75756836 C107.19565454 80.42935804 109.83549316 89.15098672 112 98 C113.32 98 114.64 98 116 98 C115.04549791 94.76968836 114.08572035 91.54096723 113.125 88.3125 C112.85558594 87.40048828 112.58617187 86.48847656 112.30859375 85.54882812 C112.04433594 84.66259766 111.78007812 83.77636719 111.5078125 82.86328125 C111.26691895 82.05157471 111.02602539 81.23986816 110.77783203 80.40356445 C110.01382181 77.94059211 110.01382181 77.94059211 108.92895508 75.37744141 C107.12411729 70.7583848 107.34900084 65.85947857 108 61 C109.91308394 57.01377331 112.94498333 54.64987116 117 53 C122.00432761 52.27195846 127.3075771 52.06081397 131.8125 54.625 C141.56121463 63.08004633 144.34151875 82.08283376 148.02441406 93.91748047 C149.34105481 98.07761713 150.7318585 102.21163834 152.12060547 106.34814453 C153.1404527 109.42354169 154.08179463 112.51785861 155 115.625 C156.15968223 119.43796297 157.40358262 123.13479447 158.9375 126.8125 C161.78183769 133.69938064 163.95859154 140.83858889 166 148 C166.26546631 148.9060498 166.53093262 149.81209961 166.80444336 150.74560547 C168.8076407 158.04198806 169.51205035 164.82134723 169.4375 172.375 C169.42920166 173.46844727 169.42090332 174.56189453 169.41235352 175.68847656 C169.00115389 195.39679187 160.76716504 210.35359957 147 224 C146.36578125 224.66773438 145.7315625 225.33546875 145.078125 226.0234375 C131.65219754 239.15233117 112.30571992 243.30076049 94.25 243.4375 C93.11328857 243.4478125 91.97657715 243.458125 90.80541992 243.46875 C72.61313936 243.27796358 58.43744744 235.86437531 45 224 C43.42759376 222.66257415 41.84767795 221.33437981 40.26733398 220.00634766 C36.94509373 217.21205074 33.64174677 214.39538852 30.33398438 211.58398438 C23.87593074 206.09729486 17.38502384 200.66222871 10.8125 195.3125 C7.11985636 192.27632634 3.47878212 189.1815003 -0.1640625 186.0859375 C-4.45376993 182.44680181 -8.80083747 178.88274957 -13.1640625 175.33203125 C-16.97670669 172.19684037 -20.74073564 169.00586241 -24.49804688 165.8046875 C-26.88334344 163.77553936 -29.28109005 161.77785465 -31.73828125 159.8359375 C-35.40623036 156.8585004 -37.68021135 154.16745641 -38.38671875 149.37890625 C-38.56571476 144.82993867 -38.33796298 141.7149217 -36.375 137.5625 C-31.92732972 132.76369786 -28.77573296 130.74723903 -22.1875 130.4375 C-15.95718861 130.66796775 -12.03068608 132.45688238 -7 136 C-6.28070313 136.49628906 -5.56140625 136.99257813 -4.8203125 137.50390625 C-3.21220847 138.62741327 -1.61107796 139.76094266 -0.015625 140.90234375 C5.85091921 144.98308759 11.9001982 148.79285543 17.91699219 152.6472168 C20.62744349 154.40748528 23.31332059 156.20371798 26 158 C20.16769473 139.91547788 14.31460086 121.83764782 8.32702637 103.80383301 C7.82426355 102.28880146 7.32252489 100.77342958 6.82189941 99.25769043 C4.13004909 91.1130827 1.29393105 83.0732936 -1.83227539 75.08251953 C-3.75250912 70.01355213 -5.37849139 64.85827903 -7 59.6875 C-7.34248779 58.60734619 -7.68497559 57.52719238 -8.0378418 56.41430664 C-9.98540981 50.26237743 -11.90242725 44.10114633 -13.8125 37.9375 C-15.38304615 32.88213934 -17.06767311 27.92743356 -19 23 C-20.73143258 17.80570225 -21.47346604 10.98675548 -18.98828125 5.94921875 C-13.5366876 -0.64835555 -8.04647847 -0.87276618 0 0 Z " fill="#FBFCFC" transform="translate(302,185)"/>
<path d="M0 0 C3.5 0.875 3.5 0.875 6.5 3.875 C6.5 7.175 6.5 10.475 6.5 13.875 C16.4 13.875 26.3 13.875 36.5 13.875 C36.5 10.575 36.5 7.275 36.5 3.875 C38.1875 1.25 38.1875 1.25 40.5 -0.125 C43.70383448 -0.7657669 45.00869499 -0.4171273 47.8125 1.25 C49.5 3.875 49.5 3.875 49.5 13.875 C59.4 13.875 69.3 13.875 79.5 13.875 C79.5 10.575 79.5 7.275 79.5 3.875 C81.1875 1.25 81.1875 1.25 83.5 -0.125 C86.70383448 -0.7657669 88.00869499 -0.4171273 90.8125 1.25 C92.5 3.875 92.5 3.875 92.5 13.875 C102.4 13.875 112.3 13.875 122.5 13.875 C122.5 10.575 122.5 7.275 122.5 3.875 C124.0625 1.1875 124.0625 1.1875 126.5 -0.125 C132.71428571 0.08928571 132.71428571 0.08928571 135.5 2.875 C135.5 6.505 135.5 10.135 135.5 13.875 C145.4 13.875 155.3 13.875 165.5 13.875 C165.5 10.575 165.5 7.275 165.5 3.875 C167.0625 1.1875 167.0625 1.1875 169.5 -0.125 C174.42331793 -0.038626 175.96013806 0.33513806 179.5 3.875 C179.5 7.175 179.5 10.475 179.5 13.875 C189.4 13.875 199.3 13.875 209.5 13.875 C209.5 10.245 209.5 6.615 209.5 2.875 C213.5 -0.125 213.5 -0.125 216 -0.5625 C218.5 -0.125 218.5 -0.125 220.8125 1.25 C222.75606605 4.27332497 222.68221722 5.52000282 222.60546875 9.0390625 C222.5902417 9.94350098 222.57501465 10.84793945 222.55932617 11.77978516 C222.53974854 12.47120605 222.5201709 13.16262695 222.5 13.875 C223.84408936 13.82001343 223.84408936 13.82001343 225.21533203 13.76391602 C228.61149887 13.64301475 232.00531092 13.55611841 235.40283203 13.49047852 C236.8595842 13.45574821 238.31610156 13.40834391 239.77197266 13.34692383 C251.18830683 12.87813716 258.70986466 14.81615501 268.5 20.875 C269.57133179 21.51526123 269.57133179 21.51526123 270.66430664 22.16845703 C276.70073409 26.48862086 280.40293249 33.8939135 282.5 40.875 C283.67848219 48.03798966 283.31947633 55.35503611 283.18359375 62.5859375 C283.17050968 64.65099393 283.16055882 66.71607236 283.15357971 68.78115845 C283.12707519 74.17059169 283.05850794 79.55866749 282.98065186 84.9475708 C282.90855908 90.46486049 282.87697054 95.9823733 282.84179688 101.5 C282.76711721 112.29225738 282.64792111 123.08351505 282.5 133.875 C276.828125 136.953125 276.828125 136.953125 273.875 136.25 C271.59605135 134.93060868 269.57989647 133.48524242 267.5 131.875 C266.175066 131.19179278 264.84268915 130.52261722 263.5 129.875 C263.49857498 128.81090912 263.49714996 127.74681824 263.49568176 126.65048218 C263.47900241 116.61573163 263.43620007 106.58138612 263.36790943 96.5468502 C263.33363849 91.38810808 263.30852926 86.22966213 263.30444336 81.07080078 C263.30016067 76.09088031 263.27170019 71.11162798 263.22656822 66.13191605 C263.2135923 64.23339354 263.20928587 62.33479108 263.21384621 60.43622971 C263.21875158 57.77364981 263.19266396 55.11302318 263.15942383 52.45068359 C263.16804947 51.66809174 263.17667511 50.88549988 263.18556213 50.07919312 C263.06606607 44.35849598 261.56748157 41.89908183 257.5 37.875 C253.52711589 34.78788706 250.42522504 34.46915372 245.44921875 34.36328125 C244.79041214 34.34533005 244.13160553 34.32737885 243.45283508 34.30888367 C241.36445369 34.25503344 239.2762974 34.22096892 237.1875 34.1875 C235.7649428 34.1543043 234.34241521 34.11981256 232.91992188 34.08398438 C229.44683085 33.99932399 225.97366087 33.9323923 222.5 33.875 C222.54640625 34.70644531 222.5928125 35.53789062 222.640625 36.39453125 C222.67671875 37.48121094 222.7128125 38.56789062 222.75 39.6875 C222.79640625 40.76644531 222.8428125 41.84539062 222.890625 42.95703125 C222.5 45.875 222.5 45.875 220.67578125 47.73828125 C217.74670394 49.26855324 215.75870387 49.29100475 212.5 48.875 C211.015 47.39 211.015 47.39 209.5 45.875 C209.5 41.915 209.5 37.955 209.5 33.875 C199.6 33.875 189.7 33.875 179.5 33.875 C179.5 37.505 179.5 41.135 179.5 44.875 C177.875 47.5625 177.875 47.5625 175.5 48.875 C172.4375 49.3125 172.4375 49.3125 169.5 48.875 C168.51 47.885 167.52 46.895 166.5 45.875 C166.5 41.915 166.5 37.955 166.5 33.875 C156.27 33.875 146.04 33.875 135.5 33.875 C135.5 37.835 135.5 41.795 135.5 45.875 C132.5 48.875 132.5 48.875 129.5625 49.375 C126.5 48.875 126.5 48.875 124.125 47 C122.5 43.875 122.5 43.875 122.5 33.875 C112.6 33.875 102.7 33.875 92.5 33.875 C92.5 37.835 92.5 41.795 92.5 45.875 C89.5 48.875 89.5 48.875 85.9375 49.25 C84.803125 49.12625 83.66875 49.0025 82.5 48.875 C80.5 45.875 80.5 45.875 80.5 33.875 C70.27 33.875 60.04 33.875 49.5 33.875 C49.5 37.835 49.5 41.795 49.5 45.875 C46.5 48.875 46.5 48.875 43 49.3125 C41.845 49.168125 40.69 49.02375 39.5 48.875 C36.5 44.875 36.5 44.875 36.5 33.875 C26.6 33.875 16.7 33.875 6.5 33.875 C6.5 37.835 6.5 41.795 6.5 45.875 C3.5 48.875 3.5 48.875 0 49.25 C-3.5 48.875 -3.5 48.875 -5.20703125 47.73828125 C-7.08176284 45.03662878 -6.7922161 42.93369918 -6.6875 39.6875 C-6.64689453 38.05748047 -6.64689453 38.05748047 -6.60546875 36.39453125 C-6.57066406 35.56308594 -6.53585938 34.73164062 -6.5 33.875 C-10.78762449 33.89452226 -15.07330753 33.946542 -19.36010742 34.02758789 C-20.81572417 34.05066218 -22.27150538 34.06513868 -23.72729492 34.07055664 C-33.18287546 33.81983248 -33.18287546 33.81983248 -41.80859375 37.05078125 C-46.76229369 42.24893083 -47.94559553 46.87609189 -47.89440918 53.90768433 C-47.90050028 54.69937551 -47.90659139 55.49106669 -47.91286707 56.30674851 C-47.9294709 58.95057724 -47.92472506 61.59392296 -47.91992188 64.23779297 C-47.92726374 66.13700866 -47.93585031 68.03621988 -47.94558716 69.9354248 C-47.96779976 75.08837442 -47.97073395 80.24116411 -47.96883965 85.39415503 C-47.96871993 89.69830498 -47.97728453 94.00242106 -47.98561716 98.30656159 C-48.00485043 108.46237264 -48.00773536 118.6181015 -48.00097656 128.77392578 C-47.99433595 139.24523137 -48.01720126 149.71618468 -48.05429029 160.18741882 C-48.08499437 169.18294011 -48.09634654 178.17834811 -48.09245348 187.17392075 C-48.09038668 192.5442358 -48.09585468 197.91427673 -48.12034607 203.28454208 C-48.14262213 208.33589089 -48.14072803 213.38666729 -48.12041855 218.4380188 C-48.11701002 220.28910899 -48.12209082 222.14023778 -48.13640213 223.99127579 C-48.58780767 235.79538394 -48.58780767 235.79538394 -44.15805817 246.38903999 C-39.48905643 250.57342266 -36.11606649 252.37751724 -29.80278015 252.32669067 C-29.15471887 252.32713627 -28.50665759 252.32758186 -27.83895808 252.32804096 C-25.68075969 252.32493965 -23.52392659 252.29346645 -21.3659668 252.26220703 C-19.81320994 252.25456511 -18.2604427 252.24883138 -16.70767212 252.24485779 C-13.36980077 252.23311108 -10.0322915 252.20961352 -6.69455528 252.17746353 C-1.41138944 252.12838866 3.87146289 252.11623831 9.15483093 252.11105347 C24.17637156 252.09124698 39.19741367 252.03199959 54.21850586 251.91308594 C62.51946363 251.84768934 70.8197675 251.8182123 79.12098569 251.82776344 C84.36814326 251.83177737 89.61251087 251.79183819 94.85913622 251.71907353 C98.13107462 251.68432094 101.40193552 251.69167299 104.67396164 251.71069527 C106.18447436 251.71117423 107.69510875 251.6946722 109.20520973 251.65940285 C120.6071462 251.40695246 120.6071462 251.40695246 125.34903526 255.08463669 C127.60011822 257.5816534 129.54713475 260.1433416 131.5 262.875 C133.27207003 264.57819926 135.08928453 265.95836039 137.0625 267.4375 C138.55470247 268.56630461 140.03864948 269.70652975 141.5 270.875 C141.5 271.205 141.5 271.535 141.5 271.875 C118.2209319 271.96854869 94.94189492 272.03903084 71.66267681 272.08224869 C60.85309747 272.10285117 50.04363511 272.13092752 39.23413086 272.17675781 C29.80972154 272.21669642 20.38539697 272.24244963 10.96090537 272.25135398 C5.97326241 272.25655683 0.98586182 272.26873712 -4.00170326 272.29792023 C-8.70241043 272.32520036 -13.40277686 272.33341965 -18.10355568 272.32743073 C-19.82277787 272.32852535 -21.54201222 272.33640388 -23.26116562 272.3518219 C-35.94893941 272.4599674 -46.49988341 271.20634744 -56.5625 262.796875 C-59.55379651 259.82970185 -61.65437422 256.6470819 -63.5 252.875 C-64.26320258 251.34031712 -64.26320258 251.34031712 -65.04182339 249.77463055 C-66.81739873 245.58509332 -66.92820351 241.79646604 -66.90113831 237.29341125 C-66.90793498 236.45468528 -66.91473164 235.61595931 -66.92173427 234.75181741 C-66.94065294 231.95461579 -66.93827289 229.15785403 -66.93579102 226.3605957 C-66.94477201 224.34949686 -66.95498104 222.33840319 -66.96632385 220.32731628 C-66.99279658 214.87252585 -66.99985627 209.41787666 -67.00177121 203.96302819 C-67.00390577 200.55154664 -67.01031457 197.14010082 -67.01826286 193.72862816 C-67.04600967 181.81686505 -67.0582695 169.90520256 -67.0559082 157.9934082 C-67.05410716 146.90693511 -67.08574019 135.82090055 -67.13313919 124.73453838 C-67.17243153 115.2030575 -67.18845709 105.67171955 -67.18654197 96.14015836 C-67.18577881 90.45333667 -67.1942328 84.76690465 -67.22607613 79.08016396 C-67.25523069 73.72751074 -67.25528206 68.37561665 -67.23352623 63.02293587 C-67.23040218 61.06547683 -67.23739719 59.10796962 -67.2556076 57.1505928 C-67.36895374 44.1165188 -66.1947467 34.32057779 -57.375 24 C-49.72640036 17.01872784 -40.47993563 13.73573797 -30.328125 13.77734375 C-29.3044986 13.77946617 -29.3044986 13.77946617 -28.26019287 13.78163147 C-26.09008316 13.78720916 -23.9200783 13.79975746 -21.75 13.8125 C-20.27474108 13.81751789 -18.79948053 13.82208029 -17.32421875 13.82617188 C-13.71611202 13.83717125 -10.10806625 13.85442047 -6.5 13.875 C-6.55220703 12.73611328 -6.55220703 12.73611328 -6.60546875 11.57421875 C-6.63253906 10.58035156 -6.65960938 9.58648437 -6.6875 8.5625 C-6.72230469 7.57636719 -6.75710937 6.59023437 -6.79296875 5.57421875 C-6.5 2.875 -6.5 2.875 -5.20703125 1.01171875 C-3.5 -0.125 -3.5 -0.125 0 0 Z " fill="#F7FAFB" transform="translate(132.5,93.125)"/>
<path d="M0 0 C0.8146875 0.70382813 1.629375 1.40765625 2.46875 2.1328125 C3.1184375 2.67164063 3.768125 3.21046875 4.4375 3.765625 C15.76445566 14.01137126 21.51685533 28.78516941 25.46875 43.1328125 C25.72893921 44.07193481 25.72893921 44.07193481 25.99438477 45.0300293 C29.21088073 59.28822782 25.48553338 75.19260714 19.46875 88.1328125 C19.07171875 89.00421875 18.6746875 89.875625 18.265625 90.7734375 C9.58079728 108.24291855 -6.19033196 120.14534419 -24.0625 127.0546875 C-43.36506042 133.05413195 -62.8970001 131.43491989 -80.79736328 122.32495117 C-88.32659894 118.32316333 -94.72685703 113.39544702 -100.53125 107.1328125 C-101.05074219 106.606875 -101.57023437 106.0809375 -102.10546875 105.5390625 C-115.77019599 91.04523945 -121.22908944 72.58728433 -120.8359375 52.9296875 C-119.37506035 34.72491074 -112.75645079 19.75803628 -100.53125 6.1328125 C-100.01433594 5.52308594 -99.49742187 4.91335937 -98.96484375 4.28515625 C-73.23377464 -24.02546866 -28.38616315 -23.00526959 0 0 Z " fill="#268BCA" transform="translate(245.53125,186.8671875)"/>
<path d="M0 0 C0.8146875 0.70382813 1.629375 1.40765625 2.46875 2.1328125 C3.1184375 2.67164063 3.768125 3.21046875 4.4375 3.765625 C15.76445566 14.01137126 21.51685533 28.78516941 25.46875 43.1328125 C25.72893921 44.07193481 25.72893921 44.07193481 25.99438477 45.0300293 C29.21088073 59.28822782 25.48553338 75.19260714 19.46875 88.1328125 C19.07171875 89.00421875 18.6746875 89.875625 18.265625 90.7734375 C9.58079728 108.24291855 -6.19033196 120.14534419 -24.0625 127.0546875 C-43.36506042 133.05413195 -62.8970001 131.43491989 -80.79736328 122.32495117 C-88.32659894 118.32316333 -94.72685703 113.39544702 -100.53125 107.1328125 C-101.05074219 106.606875 -101.57023437 106.0809375 -102.10546875 105.5390625 C-115.77019599 91.04523945 -121.22908944 72.58728433 -120.8359375 52.9296875 C-119.37506035 34.72491074 -112.75645079 19.75803628 -100.53125 6.1328125 C-100.01433594 5.52308594 -99.49742187 4.91335937 -98.96484375 4.28515625 C-73.23377464 -24.02546866 -28.38616315 -23.00526959 0 0 Z M-94.53125 18.1328125 C-99.53763182 24.31151405 -103.05869617 30.57453183 -105.53125 38.1328125 C-105.88832031 39.19242188 -106.24539062 40.25203125 -106.61328125 41.34375 C-110.11526718 55.79875576 -108.15844981 73.52716584 -100.78125 86.5078125 C-99.72882504 88.0707421 -98.64473303 89.61277869 -97.53125 91.1328125 C-96.95632812 91.96167969 -96.38140625 92.79054688 -95.7890625 93.64453125 C-89.07379443 102.74218695 -79.97416028 109.78086744 -69.53125 114.1328125 C-68.90589355 114.39594238 -68.28053711 114.65907227 -67.63623047 114.93017578 C-61.05165278 117.4125255 -54.83337057 117.67291563 -47.84375 117.6328125 C-46.11499634 117.62423218 -46.11499634 117.62423218 -44.35131836 117.61547852 C-30.68546432 117.32914634 -20.61012503 113.16545021 -9.53125 105.1328125 C-8.89832031 104.69582031 -8.26539063 104.25882812 -7.61328125 103.80859375 C3.66336542 95.21563416 11.32935172 79.88387246 13.46875 66.1328125 C14.97436075 48.92036418 11.98502115 32.6591888 0.953125 18.8984375 C-9.4175371 6.66000184 -24.3804311 -2.23076092 -40.53125 -3.8671875 C-61.96214403 -5.37944817 -80.24404115 1.6170962 -94.53125 18.1328125 Z " fill="#F5F8FA" transform="translate(245.53125,186.8671875)"/>
<path d="M0 0 C3.27155869 2.36665948 4.70646942 3.89926032 5.75 7.8125 C3.01436137 19.43896416 -13.35734524 30.69861507 -21.796875 39.2019043 C-23.94057374 41.36351627 -26.07539727 43.53336086 -28.203125 45.71069336 C-30.79147602 48.35926532 -33.39428063 50.99278199 -36.00805664 53.61625862 C-36.99554255 54.61227732 -37.97790518 55.61340403 -38.95483398 56.61977959 C-40.32020432 58.02412498 -41.7066134 59.40792146 -43.09375 60.79077148 C-43.87427734 61.58160629 -44.65480469 62.3724411 -45.45898438 63.1872406 C-48.66206958 65.47232014 -51.10487372 65.80646822 -55 66 C-57.14135742 64.85424805 -57.14135742 64.85424805 -58.91796875 63.07421875 C-59.58618652 62.42501465 -60.2544043 61.77581055 -60.94287109 61.10693359 C-61.62172363 60.41164551 -62.30057617 59.71635742 -63 59 C-63.68787598 58.33436035 -64.37575195 57.6687207 -65.08447266 56.98291016 C-67.18431196 54.94876743 -69.25112262 52.88555657 -71.3125 50.8125 C-72.01439453 50.11447266 -72.71628906 49.41644531 -73.43945312 48.69726562 C-74.11556641 48.01986328 -74.79167969 47.34246094 -75.48828125 46.64453125 C-76.39380737 45.73731323 -76.39380737 45.73731323 -77.31762695 44.81176758 C-80.20659833 41.70059988 -81.86392206 39.83158742 -82.5625 35.5625 C-82 32 -82 32 -79.3125 29.0625 C-75.86516222 26.9160444 -74.88989284 26.45694971 -71 27 C-68.71875 28.57421875 -68.71875 28.57421875 -66.5 30.6875 C-65.72398437 31.41839844 -64.94796875 32.14929688 -64.1484375 32.90234375 C-63.43945312 33.59457031 -62.73046875 34.28679687 -62 35 C-61.05125 35.9075 -60.1025 36.815 -59.125 37.75 C-57.23922998 39.74669766 -55.5790415 41.75609893 -54 44 C-50.41517732 43.41940515 -48.75033868 42.12132087 -46.21289062 39.56933594 C-45.48533569 38.8447821 -44.75778076 38.12022827 -44.00817871 37.37371826 C-43.23204224 36.58523499 -42.45590576 35.79675171 -41.65625 34.984375 C-40.85014282 34.17639465 -40.04403564 33.36841431 -39.21350098 32.53594971 C-37.50877372 30.82449794 -35.8076492 29.10945118 -34.10986328 27.39111328 C-31.51711352 24.76731844 -28.91395088 22.1542393 -26.30859375 19.54296875 C-24.65302312 17.87822321 -22.99805523 16.212878 -21.34375 14.546875 C-20.56761353 13.76648865 -19.79147705 12.98610229 -18.99182129 12.18206787 C-15.44076873 8.58412278 -12.13794179 4.96924792 -9 1 C-5.86128812 -0.56935594 -3.46144178 -0.35201103 0 0 Z " fill="#7BC84C" transform="translate(449,336)"/>
<path d="M0 0 C1.093125 0.28875 2.18625 0.5775 3.3125 0.875 C4.92551773 4.10103545 4.43303599 7.62210038 4.41015625 11.1640625 C4.4087413 11.98248627 4.40732635 12.80091003 4.40586853 13.64413452 C4.4002629 16.26279325 4.38770948 18.88136704 4.375 21.5 C4.36998572 23.27343627 4.36542269 25.04687387 4.36132812 26.8203125 C4.35029164 31.17190782 4.33302325 35.5234395 4.3125 39.875 C4.951875 40.16375 5.59125 40.4525 6.25 40.75 C8.3125 41.875 8.3125 41.875 9.3125 43.875 C9.99378376 50.68783762 9.99378376 50.68783762 8.265625 53.69921875 C5.10742297 57.53550533 3.42783692 58.76529473 -1.5 59.25 C-5.1095118 59.22374901 -5.61437846 58.93411955 -8.625 56.5 C-11.54911962 52.77839322 -11.83549304 50.6827831 -12.015625 45.9453125 C-11.6875 43.875 -11.6875 43.875 -10.19018555 42.25341797 C-8.04911038 38.86457081 -8.28470781 35.63239803 -8.31640625 31.75 C-8.29902853 30.14062282 -8.2814441 28.53124787 -8.26367188 26.921875 C-8.25358924 24.39383926 -8.2500061 21.86594567 -8.25170898 19.33789062 C-8.24813935 16.89149791 -8.22080525 14.44619821 -8.19140625 12 C-8.19958878 11.2457373 -8.2077713 10.49147461 -8.21620178 9.71435547 C-8.166876 6.2367514 -7.93479642 4.22041715 -5.88647461 1.359375 C-3.6875 -0.125 -3.6875 -0.125 0 0 Z " fill="#F4F8FA" transform="translate(199.6875,194.125)"/>
<path d="M0 0 C0.33 0 0.66 0 1 0 C1.13728516 1.89298828 1.13728516 1.89298828 1.27734375 3.82421875 C1.90204991 9.45098128 3.66026717 14.50508207 5.5625 19.8125 C6.21515055 21.65039459 6.86251123 23.49017846 7.50390625 25.33203125 C7.79080322 26.13358643 8.0777002 26.9351416 8.37329102 27.76098633 C9 30 9 30 9 34 C7.68 34 6.36 34 5 34 C-2 16.15 -2 16.15 -2 9 C-1.34 9 -0.68 9 0 9 C0 6.03 0 3.06 0 0 Z " fill="#2482C4" transform="translate(409,249)"/>
<path d="M0 0 C2.9375 0.75 2.9375 0.75 4.9375 2.75 C5.3125 5.6875 5.3125 5.6875 4.9375 8.75 C2.83044243 11.09117508 1.46869178 11.65930872 -1.625 12.1875 C-4.0625 11.75 -4.0625 11.75 -5.9375 10.125 C-7.46031243 6.91017375 -7.08566469 5.11182684 -6.0625 1.75 C-3.0625 -0.25 -3.0625 -0.25 0 0 Z " fill="#E9F1F7" transform="translate(154.0625,237.25)"/>
<path d="M0 0 C1.8125 1.125 1.8125 1.125 3 3 C3.39769128 6.18153026 3.55198782 8.12844028 1.8125 10.875 C-0.65507108 12.40659584 -2.14519831 12.42822025 -5 12 C-6.8125 10.875 -6.8125 10.875 -8 9 C-8.39769128 5.81846974 -8.55198782 3.87155972 -6.8125 1.125 C-4.34492892 -0.40659584 -2.85480169 -0.42822025 0 0 Z " fill="#EFF5F8" transform="translate(246,237)"/>
<path d="M0 0 C3.0625 0.3125 3.0625 0.3125 4.9375 1.5 C6.46909584 3.96757108 6.49072025 5.45769831 6.0625 8.3125 C4.875 10.125 4.875 10.125 3.0625 11.3125 C0.20769831 11.74072025 -1.28242892 11.71909584 -3.75 10.1875 C-5.46599028 7.47804166 -5.271228 5.44954316 -4.9375 2.3125 C-2.9375 0.3125 -2.9375 0.3125 0 0 Z " fill="#EEF4F7" transform="translate(197.9375,283.6875)"/>
<path d="M0 0 C0.33 0 0.66 0 1 0 C1.04898437 0.56847656 1.09796875 1.13695312 1.1484375 1.72265625 C1.63143081 6.71081129 2.47638163 11.22599578 4 16 C3.34 16.33 2.68 16.66 2 17 C0.86649466 19.01669827 0.86649466 19.01669827 0 21 C-1.13764351 16.73383684 -2 13.43513689 -2 9 C-1.34 9 -0.68 9 0 9 C0 6.03 0 3.06 0 0 Z " fill="#4396D0" transform="translate(409,249)"/>
<path d="M0 0 C2.56616632 3.84924948 2.55097676 6.4349304 3 11 C1.68 11 0.36 11 -1 11 C-3.21001616 5.59773829 -3.21001616 5.59773829 -2.1875 2.6875 C-1 1 -1 1 0 0 Z " fill="#3590CE" transform="translate(344,280)"/>
<path d="M0 0 C2.56616632 3.84924948 2.55097676 6.4349304 3 11 C1.68 11 0.36 11 -1 11 C-1.66 9.02 -2.32 7.04 -3 5 C-2.34 4.67 -1.68 4.34 -1 4 C-0.34786708 1.97536745 -0.34786708 1.97536745 0 0 Z " fill="#3D95D1" transform="translate(415,272)"/>
<path d="M0 0 C-0.598125 0.268125 -1.19625 0.53625 -1.8125 0.8125 C-4.07285898 2.03955202 -5.37633842 3.01552474 -7 5 C-7.57323807 7.27161255 -7.57323807 7.27161255 -7.6875 9.6875 C-7.75324219 10.49574219 -7.81898438 11.30398437 -7.88671875 12.13671875 C-7.92410156 12.75160156 -7.96148437 13.36648437 -8 14 C-8.33 14 -8.66 14 -9 14 C-9.10815225 12.23050905 -9.18566083 10.45912513 -9.25 8.6875 C-9.29640625 7.70136719 -9.3428125 6.71523437 -9.390625 5.69921875 C-9 3 -9 3 -7.15625 1.15625 C-4.58940917 -0.22017189 -2.87176585 -0.23931382 0 0 Z " fill="#C2DEEE" transform="translate(351,93)"/>
<path d="M0 0 C-0.598125 0.268125 -1.19625 0.53625 -1.8125 0.8125 C-4.07285898 2.03955202 -5.37633842 3.01552474 -7 5 C-7.57323807 7.27161255 -7.57323807 7.27161255 -7.6875 9.6875 C-7.75324219 10.49574219 -7.81898438 11.30398437 -7.88671875 12.13671875 C-7.92410156 12.75160156 -7.96148437 13.36648437 -8 14 C-8.33 14 -8.66 14 -9 14 C-9.62068966 4.96551724 -9.62068966 4.96551724 -7.3125 1.375 C-4.63064217 -0.21961817 -3.06890491 -0.34098943 0 0 Z " fill="#C7E1EF" transform="translate(178,93)"/>
<path d="M0 0 C0.66 0.33 1.32 0.66 2 1 C-0.64 3.64 -3.28 6.28 -6 9 C-6 6 -6 6 -3.5625 3.375 C-2.716875 2.59125 -1.87125 1.8075 -1 1 C-0.67 0.67 -0.34 0.34 0 0 Z " fill="#CEE1EF" transform="translate(380,235)"/>
</svg>
